# xmcd
#
# Track frame offsets:
#	150
#	10572
#	17758
#	29797
#	42169
#	53884
#	71462
#	71914
#	87424
#	98678
#	110149
#
# Disc length: 1624
#
# Revision: 1
# Processed by: cddbd v1.5.1PL0 Copyright (c) Steve Scherf et al.
# Submitted via: FreeRIP 2.12 
# Normalized: r0:TRMNUM
#
DISCID=9206560b
DTITLE=Al Batten - Instrumentals and Insanities
DYEAR=1900
DGENRE=Bluegrass
TTITLE0=Reunion Shuffle
TTITLE1=It's Two O'Clock
TTITLE2=Laurels Waltz
TTITLE3=Bending The Strings
TTITLE4=Green Valley Waltz
TTITLE5=I Can't Quit Cigarettes
TTITLE6=Johnny
TTITLE7=Alway,s Marry An Ugly Girl
TTITLE8=Harold's Super Service
TTITLE9=The Devil And The Farmer's Wife
TTITLE10=Redneck Love Song
EXTD=
EXTT0=
EXTT1=
EXTT2=
EXTT3=
EXTT4=
EXTT5=
EXTT6=
EXTT7=
EXTT8=
EXTT9=
EXTT10=
PLAYORDER=
